<svg xmlns="http://www.w3.org/2000/svg" xmlns:xlink="http://www.w3.org/1999/xlink" width="2000" zoomAndPan="magnify" viewBox="0 0 1500 1499.999933" height="2000" preserveAspectRatio="xMidYMid meet" version="1.0"><defs><g/><clipPath id="2aae3f0978"><rect x="0" width="1437" y="0" height="1040"/></clipPath><clipPath id="a430f1187b"><rect x="0" width="235" y="0" height="532"/></clipPath></defs><rect x="-150" width="1800" fill="#ffffff" y="-149.999993" height="1799.99992" fill-opacity="1"/><rect x="-150" width="1800" fill="#821d30" y="-149.999993" height="1799.99992" fill-opacity="1"/><g transform="matrix(1, 0, 0, 1, 63, 230)"><g clip-path="url(#2aae3f0978)"><g fill="#fff9f4" fill-opacity="1"><g transform="translate(1.605734, 826.240044)"><g><path d="M 40.6875 0 L 40.6875 -4.0625 C 60.757812 -12.207031 73.507812 -23.875 78.9375 -39.0625 C 84.363281 -54.25 87.078125 -77.578125 87.078125 -109.046875 L 87.078125 -507 C 87.078125 -529.238281 85.988281 -547.003906 83.8125 -560.296875 C 81.644531 -573.585938 77.304688 -584.164062 70.796875 -592.03125 C 64.285156 -599.90625 54.25 -606.550781 40.6875 -611.96875 L 40.6875 -616.046875 L 268.546875 -616.046875 C 314.660156 -616.046875 355.347656 -611.160156 390.609375 -601.390625 C 425.878906 -591.628906 453.550781 -575.894531 473.625 -554.1875 C 493.695312 -532.488281 503.734375 -503.195312 503.734375 -466.3125 C 503.734375 -434.300781 496.003906 -407.304688 480.546875 -385.328125 C 465.085938 -363.359375 443.925781 -346.269531 417.0625 -334.0625 C 390.207031 -321.851562 359.421875 -313.851562 324.703125 -310.0625 L 550.9375 -4.875 L 550.9375 0 L 443.515625 0 L 239.25 -304.359375 L 177.40625 -304.359375 L 177.40625 -109.046875 C 177.40625 -77.578125 180.253906 -54.25 185.953125 -39.0625 C 191.648438 -23.875 205.347656 -12.207031 227.046875 -4.0625 L 227.046875 0 Z M 177.40625 -336.09375 L 238.4375 -336.09375 C 272.070312 -336.09375 302.046875 -340.296875 328.359375 -348.703125 C 354.679688 -357.117188 375.4375 -370.820312 390.625 -389.8125 C 405.8125 -408.800781 413.40625 -434.023438 413.40625 -465.484375 C 413.40625 -494.785156 406.488281 -518.113281 392.65625 -535.46875 C 378.820312 -552.832031 359.695312 -565.175781 335.28125 -572.5 C 310.863281 -579.832031 282.925781 -583.5 251.46875 -583.5 L 177.40625 -583.5 Z M 177.40625 -336.09375 "/></g></g></g><g fill="#fff9f4" fill-opacity="1"><g transform="translate(616.017424, 826.240044)"><g><path d="M 354 8.140625 L 128.578125 -532.21875 L 128.578125 -109.046875 C 128.578125 -77.578125 131.5625 -54.25 137.53125 -39.0625 C 143.5 -23.875 157.332031 -12.207031 179.03125 -4.0625 L 179.03125 0 L 38.25 0 L 38.25 -4.0625 C 59.945312 -12.207031 73.507812 -23.875 78.9375 -39.0625 C 84.363281 -54.25 87.078125 -77.578125 87.078125 -109.046875 L 87.078125 -507 C 87.078125 -529.238281 85.988281 -547.003906 83.8125 -560.296875 C 81.644531 -573.585938 77.441406 -584.164062 71.203125 -592.03125 C 64.960938 -599.90625 55.0625 -606.550781 41.5 -611.96875 L 41.5 -616.046875 L 185.546875 -616.046875 L 389.8125 -115.5625 L 590.8125 -616.046875 L 732.421875 -616.046875 L 732.421875 -611.96875 C 719.398438 -606.550781 709.769531 -599.90625 703.53125 -592.03125 C 697.289062 -584.164062 693.082031 -573.585938 690.90625 -560.296875 C 688.738281 -547.003906 687.65625 -529.238281 687.65625 -507 L 687.65625 -109.046875 C 687.65625 -77.578125 690.367188 -54.25 695.796875 -39.0625 C 701.222656 -23.875 713.972656 -12.207031 734.046875 -4.0625 L 734.046875 0 L 550.9375 0 L 550.9375 -4.0625 C 572.09375 -12.207031 585.519531 -23.875 591.21875 -39.0625 C 596.914062 -54.25 599.765625 -77.578125 599.765625 -109.046875 L 599.765625 -541.984375 L 377.609375 8.140625 Z M 354 8.140625 "/></g></g></g></g></g><g transform="matrix(1, 0, 0, 1, 485, 484)"><g clip-path="url(#a430f1187b)"><g fill="#fff9f4" fill-opacity="1"><g transform="translate(2.518303, 423.373323)"><g><path d="M 123.375 7.078125 C 101.976562 7.078125 83.289062 2.492188 67.3125 -6.671875 C 51.332031 -15.835938 38.894531 -28.617188 30 -45.015625 C 21.113281 -61.410156 16.671875 -80.445312 16.671875 -102.125 C 16.671875 -124.070312 21.113281 -143.171875 30 -159.421875 C 38.894531 -175.679688 51.332031 -188.328125 67.3125 -197.359375 C 83.289062 -206.390625 101.976562 -210.90625 123.375 -210.90625 C 145.050781 -210.90625 163.878906 -206.390625 179.859375 -197.359375 C 195.835938 -188.328125 208.269531 -175.679688 217.15625 -159.421875 C 226.050781 -143.171875 230.5 -124.070312 230.5 -102.125 C 230.5 -80.445312 226.050781 -61.410156 217.15625 -45.015625 C 208.269531 -28.617188 195.835938 -15.835938 179.859375 -6.671875 C 163.878906 2.492188 145.050781 7.078125 123.375 7.078125 Z M 60.015625 -102.125 C 60.015625 -72.945312 65.570312 -50.085938 76.6875 -33.546875 C 87.800781 -17.015625 103.503906 -8.75 123.796875 -8.75 C 143.796875 -8.75 159.285156 -17.015625 170.265625 -33.546875 C 181.242188 -50.085938 186.734375 -72.945312 186.734375 -102.125 C 186.734375 -131.300781 181.242188 -154.082031 170.265625 -170.46875 C 159.285156 -186.863281 143.796875 -195.0625 123.796875 -195.0625 C 103.503906 -195.0625 87.800781 -186.863281 76.6875 -170.46875 C 65.570312 -154.082031 60.015625 -131.300781 60.015625 -102.125 Z M 60.015625 -102.125 "/></g></g></g></g></g></svg>